<svg id="logo-wm" class="logo-wm-web" xmlns="http://www.w3.org/2000/svg" width="834.64" height="145.77" viewBox="0 0 834.64 145.77"><path id="logo-wm-web-full" d="M136.25,140.57a3.82,3.82,0,0,1-3.6,3.2h-3.2a4.42,4.42,0,0,1-3.4-2L79.65,65.6h-.4l-46.4,76.17a4.42,4.42,0,0,1-3.4,2h-3.2a3.82,3.82,0,0,1-3.6-3.2L.06,6.17a3.67,3.67,0,0,1,3.8-4.4h23.6A4.07,4.07,0,0,1,31.26,5l9,72h.4L74.25,2.2A4.68,4.68,0,0,1,77.65,0h3.6a4.35,4.35,0,0,1,3.4,2.2L118.45,77h.4l8.8-72a3.89,3.89,0,0,1,3.8-3.2h23.6a3.67,3.67,0,0,1,3.8,4.4ZM200.12,5.64A3.86,3.86,0,0,1,204,1.77h84.25a3.86,3.86,0,0,1,3.87,3.87V27.82a3.86,3.86,0,0,1-3.87,3.87H231.87V57.92h46.4a4,4,0,0,1,3.87,3.87V84a3.86,3.86,0,0,1-3.87,3.87h-46.4v28.47h56.37a3.86,3.86,0,0,1,3.87,3.87V141.9a3.86,3.86,0,0,1-3.87,3.87H204a3.86,3.86,0,0,1-3.87-3.87Zm141.93-.07a3.8,3.8,0,0,1,3.8-3.8h46.66c23.6,0,43,16.2,43,37.2,0,15.4-13.8,27.83-23.2,32.83,10.6,4.4,26.8,15,26.8,33.37,0,22.4-19.8,38.6-43.6,38.6H346.18a3.9,3.9,0,0,1-3.92-3.8ZM388.91,59.8c7.6,0,14-6.63,14-14.63s-6.4-14.6-14-14.6H373.66V59.8Zm2.6,55.37a14.51,14.51,0,0,0,14.4-14.6c0-8-8.6-14.77-16.4-14.77H373.66v29.37Z" style="fill:#1fc367;mix-blend-mode:multiply"/></svg>
