<svg id="logo-wm" xmlns="http://www.w3.org/2000/svg" xmlns:xlink="http://www.w3.org/1999/xlink" width="834.64" height="145.77" viewBox="0 0 834.64 145.77"><defs><linearGradient id="Red_Gradient" x1="416.92" y1="1.77" x2="416.92" y2="145.77" gradientUnits="userSpaceOnUse"><stop offset="0" stop-color="#ff5629"/><stop offset="1" stop-color="#d84824"/></linearGradient></defs><title>Zeichenfläche 1</title><path id="logo-wm-montag-full" d="M22.66,5a3.82,3.82,0,0,1,3.6-3.2h3.2a4.42,4.42,0,0,1,3.4,2l46.4,86.4h.4l46.4-86.4a4.42,4.42,0,0,1,3.4-2h3.2a3.82,3.82,0,0,1,3.6,3.2l22.6,134.4a3.67,3.67,0,0,1-3.8,4.4h-23.6a4.07,4.07,0,0,1-3.8-3.2l-9-61.8h-.4l-33.6,64.8a4.68,4.68,0,0,1-3.4,2.2h-3.6a4.35,4.35,0,0,1-3.4-2.2l-33.8-64.8h-.4l-8.8,61.8a3.89,3.89,0,0,1-3.8,3.2H3.86a3.67,3.67,0,0,1-3.8-4.4Zm223.4-3.2a72,72,0,1,1,0,144A71.36,71.36,0,0,1,174.25,74,71.7,71.7,0,0,1,246.05,1.77Zm0,112a40,40,0,1,0,0-80c-21.8,0-39.8,18.2-39.8,40.2A40,40,0,0,0,246.05,113.77Zm96-108.4a3.76,3.76,0,0,1,3.8-3.6h5l79.8,76.8h.2v-71a3.8,3.8,0,0,1,3.8-3.8h24a3.93,3.93,0,0,1,3.8,3.8v134.6a3.76,3.76,0,0,1-3.8,3.6h-3.2a5.89,5.89,0,0,1-2.6-1l-79-79.4h-.2V140a3.8,3.8,0,0,1-3.8,3.8h-23.8a3.93,3.93,0,0,1-3.8-3.8Zm172.8,27.8h-28.6a3.8,3.8,0,0,1-3.8-3.8V7.57a3.8,3.8,0,0,1,3.8-3.8H575a3.8,3.8,0,0,1,3.8,3.8v21.8a3.8,3.8,0,0,1-3.8,3.8h-28.6V140a3.93,3.93,0,0,1-3.8,3.8h-24a3.93,3.93,0,0,1-3.8-3.8Zm58.8,105.4L636.25,4a4.06,4.06,0,0,1,3.4-2.2h2A4.06,4.06,0,0,1,645,4l62.6,134.6a3.53,3.53,0,0,1-3.4,5.2H682c-3.6,0-5.2-1.2-7-5l-7.2-15.8h-54.4l-7.2,16a7.45,7.45,0,0,1-7.2,4.8h-22A3.53,3.53,0,0,1,573.65,138.57Zm82.2-42.8-15.2-33h-.2l-15,33ZM782.65,2c16.8,0,35.2,7,48.8,18.8a3.51,3.51,0,0,1,.4,5.4L816,43a4.23,4.23,0,0,1-5.4.2c-7.6-7-16.4-9.6-26.2-9.6C762.65,33.57,745,52,745,74a39.86,39.86,0,0,0,39.6,39.8,47.25,47.25,0,0,0,17.8-3.2V99h-12.6a3.63,3.63,0,0,1-3.8-3.6V75.57a3.68,3.68,0,0,1,3.8-3.8H830a3.76,3.76,0,0,1,3.6,3.8l.2,53.8a4.94,4.94,0,0,1-1.6,3.2s-20.6,13-49.6,13a71.8,71.8,0,1,1,0-143.6Z" fill="url(#Red_Gradient)"/></svg>