<svg xmlns="http://www.w3.org/2000/svg" xmlns:xlink="http://www.w3.org/1999/xlink" width="238.78" height="145.77" viewBox="0 0 238.78 145.77"><defs><linearGradient id="Red_Gradient" x1="79.45" y1="1.77" x2="79.45" y2="145.77" gradientUnits="userSpaceOnUse"><stop offset="0" stop-color="#ff5629"/><stop offset="1" stop-color="#d84824"/></linearGradient><linearGradient id="Green_Gradient" x1="79.45" x2="79.45" y2="143.77" gradientUnits="userSpaceOnUse"><stop offset="0" stop-color="#1fc367"/><stop offset="1" stop-color="#189950"/></linearGradient></defs><title>Logo</title><g style="isolation:isolate"><g id="Ebene_2" data-name="Ebene 2"><g id="Ebene_4_Kopie" data-name="Ebene 4 Kopie"><path d="M22.66,5a3.82,3.82,0,0,1,3.6-3.2h3.2a4.42,4.42,0,0,1,3.4,2l46.4,86.4h.4l46.4-86.4a4.42,4.42,0,0,1,3.4-2h3.2a3.82,3.82,0,0,1,3.6,3.2l22.6,134.4a3.67,3.67,0,0,1-3.8,4.4h-23.6a4.07,4.07,0,0,1-3.8-3.2l-9-61.8h-.4l-33.6,64.8a4.68,4.68,0,0,1-3.4,2.2h-3.6a4.35,4.35,0,0,1-3.4-2.2l-33.8-64.8h-.4l-8.8,61.8a3.89,3.89,0,0,1-3.8,3.2H3.86a3.67,3.67,0,0,1-3.8-4.4Z" fill="url(#Red_Gradient)"/><path d="M136.25,140.57a3.82,3.82,0,0,1-3.6,3.2h-3.2a4.42,4.42,0,0,1-3.4-2L79.65,65.6h-.4l-46.4,76.17a4.42,4.42,0,0,1-3.4,2h-3.2a3.82,3.82,0,0,1-3.6-3.2L.06,6.17a3.67,3.67,0,0,1,3.8-4.4h23.6A4.07,4.07,0,0,1,31.26,5l9,72h.4L74.25,2.2A4.68,4.68,0,0,1,77.65,0h3.6a4.35,4.35,0,0,1,3.4,2.2L118.45,77h.4l8.8-72a3.89,3.89,0,0,1,3.8-3.2h23.6a3.67,3.67,0,0,1,3.8,4.4Z" fill="url(#Green_Gradient)" style="mix-blend-mode:multiply"/><path d="M175.17,4.29a1.06,1.06,0,0,1,1-1h6.4a1,1,0,0,1,1,1V17.85H199V4.29a1,1,0,0,1,1-1h6.4a1.06,1.06,0,0,1,1,1V39.91a1.06,1.06,0,0,1-1,1H200a1,1,0,0,1-1-1V25.76H183.62V39.91a1,1,0,0,1-1,1h-6.4a1.06,1.06,0,0,1-1-1Z" fill="#4d4d4d"/><path d="M212.68,4.29a1,1,0,0,1,1-1h12.54c6.35,0,11.57,4.36,11.57,10,0,4.14-3.71,7.16-6.24,8.5,2.85,1.18,7.21,3.82,7.21,8.77,0,6-5.33,10.39-11.73,10.39H213.7a1,1,0,0,1-1-1Zm12.59,14.26A3.84,3.84,0,0,0,229,14.68,3.65,3.65,0,0,0,225.27,11h-4.2v7.53Zm.7,14.69a3.9,3.9,0,0,0,3.87-3.93c0-2.15-2.31-3.77-4.41-3.77h-4.36v7.7Z" fill="#4d4d4d"/></g></g></g></svg>